<svg width="196" height="43" viewBox="0 0 196 43" fill="none" xmlns="http://www.w3.org/2000/svg">
<rect width="196" height="43" rx="20" fill="#1877F2"/>
<g clip-path="url(#clip0_1_43)">
<path d="M36 19C36 11.2681 29.7319 5 22 5C14.2681 5 8 11.268 8 19C8 25.9877 13.1196 31.7797 19.8125 32.8299V23.0469H16.2578V19H19.8125V15.9156C19.8125 12.4069 21.9027 10.4687 25.1005 10.4687C26.6322 10.4687 28.2344 10.7422 28.2344 10.7422V14.1875H26.4691C24.7298 14.1875 24.1875 15.2667 24.1875 16.3739V19H28.0703L27.4496 23.0469H24.1875V32.8299C30.8804 31.7797 36 25.9879 36 19Z" fill="#1877F2"/>
<path d="M27.4496 23.0469L28.0703 19H24.1875V16.3739C24.1875 15.2666 24.7299 14.1875 26.4691 14.1875H28.2344V10.7422C28.2344 10.7422 26.6322 10.4688 25.1005 10.4688C21.9027 10.4688 19.8125 12.4069 19.8125 15.9156V19H16.2578V23.0469H19.8125V32.8299C20.5361 32.9433 21.2675 33.0002 22 33C22.7325 33.0002 23.4639 32.9434 24.1875 32.8299V23.0469H27.4496Z" fill="white"/>
</g>
<path d="M67.38 14.96V17.7H61.66V20.66H65.94V23.32H61.66V29H58.24V14.96H67.38ZM68.4975 23.4C68.4975 22.2533 68.7108 21.2467 69.1375 20.38C69.5775 19.5133 70.1708 18.8467 70.9175 18.38C71.6642 17.9133 72.4975 17.68 73.4175 17.68C74.2042 17.68 74.8908 17.84 75.4775 18.16C76.0775 18.48 76.5375 18.9 76.8575 19.42V17.84H80.2775V29H76.8575V27.42C76.5242 27.94 76.0575 28.36 75.4575 28.68C74.8708 29 74.1842 29.16 73.3975 29.16C72.4908 29.16 71.6642 28.9267 70.9175 28.46C70.1708 27.98 69.5775 27.3067 69.1375 26.44C68.7108 25.56 68.4975 24.5467 68.4975 23.4ZM76.8575 23.42C76.8575 22.5667 76.6175 21.8933 76.1375 21.4C75.6708 20.9067 75.0975 20.66 74.4175 20.66C73.7375 20.66 73.1575 20.9067 72.6775 21.4C72.2108 21.88 71.9775 22.5467 71.9775 23.4C71.9775 24.2533 72.2108 24.9333 72.6775 25.44C73.1575 25.9333 73.7375 26.18 74.4175 26.18C75.0975 26.18 75.6708 25.9333 76.1375 25.44C76.6175 24.9467 76.8575 24.2733 76.8575 23.42ZM82.0717 23.42C82.0717 22.26 82.3051 21.2467 82.7717 20.38C83.2517 19.5133 83.9117 18.8467 84.7517 18.38C85.6051 17.9133 86.5784 17.68 87.6717 17.68C89.0717 17.68 90.2384 18.0467 91.1717 18.78C92.1184 19.5133 92.7384 20.5467 93.0317 21.88H89.3917C89.0851 21.0267 88.4917 20.6 87.6117 20.6C86.9851 20.6 86.4851 20.8467 86.1117 21.34C85.7384 21.82 85.5517 22.5133 85.5517 23.42C85.5517 24.3267 85.7384 25.0267 86.1117 25.52C86.4851 26 86.9851 26.24 87.6117 26.24C88.4917 26.24 89.0851 25.8133 89.3917 24.96H93.0317C92.7384 26.2667 92.1184 27.2933 91.1717 28.04C90.2251 28.7867 89.0584 29.16 87.6717 29.16C86.5784 29.16 85.6051 28.9267 84.7517 28.46C83.9117 27.9933 83.2517 27.3267 82.7717 26.46C82.3051 25.5933 82.0717 24.58 82.0717 23.42ZM105.381 23.24C105.381 23.56 105.361 23.8933 105.321 24.24H97.5811C97.6344 24.9333 97.8544 25.4667 98.2411 25.84C98.6411 26.2 99.1278 26.38 99.7011 26.38C100.554 26.38 101.148 26.02 101.481 25.3H105.121C104.934 26.0333 104.594 26.6933 104.101 27.28C103.621 27.8667 103.014 28.3267 102.281 28.66C101.548 28.9933 100.728 29.16 99.8211 29.16C98.7278 29.16 97.7544 28.9267 96.9011 28.46C96.0478 27.9933 95.3811 27.3267 94.9011 26.46C94.4211 25.5933 94.1811 24.58 94.1811 23.42C94.1811 22.26 94.4144 21.2467 94.8811 20.38C95.3611 19.5133 96.0278 18.8467 96.8811 18.38C97.7344 17.9133 98.7144 17.68 99.8211 17.68C100.901 17.68 101.861 17.9067 102.701 18.36C103.541 18.8133 104.194 19.46 104.661 20.3C105.141 21.14 105.381 22.12 105.381 23.24ZM101.881 22.34C101.881 21.7533 101.681 21.2867 101.281 20.94C100.881 20.5933 100.381 20.42 99.7811 20.42C99.2078 20.42 98.7211 20.5867 98.3211 20.92C97.9344 21.2533 97.6944 21.7267 97.6011 22.34H101.881ZM110.605 19.42C110.925 18.9 111.385 18.48 111.985 18.16C112.585 17.84 113.272 17.68 114.045 17.68C114.965 17.68 115.799 17.9133 116.545 18.38C117.292 18.8467 117.879 19.5133 118.305 20.38C118.745 21.2467 118.965 22.2533 118.965 23.4C118.965 24.5467 118.745 25.56 118.305 26.44C117.879 27.3067 117.292 27.98 116.545 28.46C115.799 28.9267 114.965 29.16 114.045 29.16C113.259 29.16 112.572 29.0067 111.985 28.7C111.399 28.38 110.939 27.96 110.605 27.44V29H107.185V14.2H110.605V19.42ZM115.485 23.4C115.485 22.5467 115.245 21.88 114.765 21.4C114.299 20.9067 113.719 20.66 113.025 20.66C112.345 20.66 111.765 20.9067 111.285 21.4C110.819 21.8933 110.585 22.5667 110.585 23.42C110.585 24.2733 110.819 24.9467 111.285 25.44C111.765 25.9333 112.345 26.18 113.025 26.18C113.705 26.18 114.285 25.9333 114.765 25.44C115.245 24.9333 115.485 24.2533 115.485 23.4ZM125.84 29.16C124.746 29.16 123.76 28.9267 122.88 28.46C122.013 27.9933 121.326 27.3267 120.82 26.46C120.326 25.5933 120.08 24.58 120.08 23.42C120.08 22.2733 120.333 21.2667 120.84 20.4C121.346 19.52 122.04 18.8467 122.92 18.38C123.8 17.9133 124.786 17.68 125.88 17.68C126.973 17.68 127.96 17.9133 128.84 18.38C129.72 18.8467 130.413 19.52 130.92 20.4C131.426 21.2667 131.68 22.2733 131.68 23.42C131.68 24.5667 131.42 25.58 130.9 26.46C130.393 27.3267 129.693 27.9933 128.8 28.46C127.92 28.9267 126.933 29.16 125.84 29.16ZM125.84 26.2C126.493 26.2 127.046 25.96 127.5 25.48C127.966 25 128.2 24.3133 128.2 23.42C128.2 22.5267 127.973 21.84 127.52 21.36C127.08 20.88 126.533 20.64 125.88 20.64C125.213 20.64 124.66 20.88 124.22 21.36C123.78 21.8267 123.56 22.5133 123.56 23.42C123.56 24.3133 123.773 25 124.2 25.48C124.64 25.96 125.186 26.2 125.84 26.2ZM138.574 29.16C137.481 29.16 136.494 28.9267 135.614 28.46C134.747 27.9933 134.061 27.3267 133.554 26.46C133.061 25.5933 132.814 24.58 132.814 23.42C132.814 22.2733 133.067 21.2667 133.574 20.4C134.081 19.52 134.774 18.8467 135.654 18.38C136.534 17.9133 137.521 17.68 138.614 17.68C139.707 17.68 140.694 17.9133 141.574 18.38C142.454 18.8467 143.147 19.52 143.654 20.4C144.161 21.2667 144.414 22.2733 144.414 23.42C144.414 24.5667 144.154 25.58 143.634 26.46C143.127 27.3267 142.427 27.9933 141.534 28.46C140.654 28.9267 139.667 29.16 138.574 29.16ZM138.574 26.2C139.227 26.2 139.781 25.96 140.234 25.48C140.701 25 140.934 24.3133 140.934 23.42C140.934 22.5267 140.707 21.84 140.254 21.36C139.814 20.88 139.267 20.64 138.614 20.64C137.947 20.64 137.394 20.88 136.954 21.36C136.514 21.8267 136.294 22.5133 136.294 23.42C136.294 24.3133 136.507 25 136.934 25.48C137.374 25.96 137.921 26.2 138.574 26.2ZM153.048 29L149.648 24.32V29H146.228V14.2H149.648V22.38L153.028 17.84H157.248L152.608 23.44L157.288 29H153.048Z" fill="white"/>
<defs>
<clipPath id="clip0_1_43">
<rect width="28" height="28" fill="white" transform="translate(8 5)"/>
</clipPath>
</defs>
</svg>
