<svg width="196" height="43" viewBox="0 0 196 43" fill="none" xmlns="http://www.w3.org/2000/svg">
<rect width="196" height="43" rx="20" fill="#FFFCFC"/>
<g clip-path="url(#clip0_1_42)">
<path d="M38.9871 22.2619C38.9871 21.1148 38.8953 20.2777 38.6965 19.4096H25.769V24.5872H33.3571C33.2042 25.8739 32.378 27.8117 30.5422 29.1138L30.5164 29.2872L34.6039 32.4957L34.887 32.5244C37.4878 30.0905 38.9871 26.5095 38.9871 22.2619Z" fill="#4285F4"/>
<path d="M25.769 35.9038C29.4865 35.9038 32.6074 34.6636 34.887 32.5244L30.5422 29.1138C29.3795 29.9354 27.8189 30.509 25.769 30.509C22.1279 30.509 19.0375 28.0753 17.9359 24.7113L17.7744 24.7252L13.5242 28.0582L13.4687 28.2147C15.7329 32.7723 20.3837 35.9038 25.769 35.9038Z" fill="#34A853"/>
<path d="M17.9359 24.7113C17.6452 23.8432 17.477 22.913 17.477 21.9519C17.477 20.9907 17.6452 20.0606 17.9206 19.1925L17.9129 19.0076L13.6095 15.6211L13.4687 15.689C12.5355 17.5803 12 19.7041 12 21.9519C12 24.1997 12.5355 26.3234 13.4687 28.2147L17.9359 24.7113Z" fill="#FBBC05"/>
<path d="M25.769 13.3947C28.3544 13.3947 30.0984 14.5264 31.0929 15.472L34.9788 11.6275C32.5923 9.37969 29.4865 8 25.769 8C20.3837 8 15.7329 11.1314 13.4687 15.689L17.9206 19.1925C19.0375 15.8286 22.1279 13.3947 25.769 13.3947Z" fill="#EB4335"/>
</g>
<path d="M77.56 19.4C77.3067 18.9333 76.94 18.58 76.46 18.34C75.9933 18.0867 75.44 17.96 74.8 17.96C73.6933 17.96 72.8067 18.3267 72.14 19.06C71.4733 19.78 71.14 20.7467 71.14 21.96C71.14 23.2533 71.4867 24.2667 72.18 25C72.8867 25.72 73.8533 26.08 75.08 26.08C75.92 26.08 76.6267 25.8667 77.2 25.44C77.7867 25.0133 78.2133 24.4 78.48 23.6H74.14V21.08H81.58V24.26C81.3267 25.1133 80.8933 25.9067 80.28 26.64C79.68 27.3733 78.9133 27.9667 77.98 28.42C77.0467 28.8733 75.9933 29.1 74.82 29.1C73.4333 29.1 72.1933 28.8 71.1 28.2C70.02 27.5867 69.1733 26.74 68.56 25.66C67.96 24.58 67.66 23.3467 67.66 21.96C67.66 20.5733 67.96 19.34 68.56 18.26C69.1733 17.1667 70.02 16.32 71.1 15.72C72.18 15.1067 73.4133 14.8 74.8 14.8C76.48 14.8 77.8933 15.2067 79.04 16.02C80.2 16.8333 80.9667 17.96 81.34 19.4H77.56ZM88.5544 29.16C87.461 29.16 86.4744 28.9267 85.5944 28.46C84.7277 27.9933 84.041 27.3267 83.5344 26.46C83.041 25.5933 82.7944 24.58 82.7944 23.42C82.7944 22.2733 83.0477 21.2667 83.5544 20.4C84.061 19.52 84.7544 18.8467 85.6344 18.38C86.5144 17.9133 87.501 17.68 88.5944 17.68C89.6877 17.68 90.6744 17.9133 91.5544 18.38C92.4344 18.8467 93.1277 19.52 93.6344 20.4C94.141 21.2667 94.3944 22.2733 94.3944 23.42C94.3944 24.5667 94.1344 25.58 93.6144 26.46C93.1077 27.3267 92.4077 27.9933 91.5144 28.46C90.6344 28.9267 89.6477 29.16 88.5544 29.16ZM88.5544 26.2C89.2077 26.2 89.761 25.96 90.2144 25.48C90.681 25 90.9144 24.3133 90.9144 23.42C90.9144 22.5267 90.6877 21.84 90.2344 21.36C89.7944 20.88 89.2477 20.64 88.5944 20.64C87.9277 20.64 87.3744 20.88 86.9344 21.36C86.4944 21.8267 86.2744 22.5133 86.2744 23.42C86.2744 24.3133 86.4877 25 86.9144 25.48C87.3544 25.96 87.901 26.2 88.5544 26.2ZM101.289 29.16C100.195 29.16 99.2088 28.9267 98.3288 28.46C97.4621 27.9933 96.7754 27.3267 96.2688 26.46C95.7754 25.5933 95.5288 24.58 95.5288 23.42C95.5288 22.2733 95.7821 21.2667 96.2887 20.4C96.7954 19.52 97.4888 18.8467 98.3688 18.38C99.2488 17.9133 100.235 17.68 101.329 17.68C102.422 17.68 103.409 17.9133 104.289 18.38C105.169 18.8467 105.862 19.52 106.369 20.4C106.875 21.2667 107.129 22.2733 107.129 23.42C107.129 24.5667 106.869 25.58 106.349 26.46C105.842 27.3267 105.142 27.9933 104.249 28.46C103.369 28.9267 102.382 29.16 101.289 29.16ZM101.289 26.2C101.942 26.2 102.495 25.96 102.949 25.48C103.415 25 103.649 24.3133 103.649 23.42C103.649 22.5267 103.422 21.84 102.969 21.36C102.529 20.88 101.982 20.64 101.329 20.64C100.662 20.64 100.109 20.88 99.6688 21.36C99.2288 21.8267 99.0088 22.5133 99.0088 23.42C99.0088 24.3133 99.2221 25 99.6488 25.48C100.089 25.96 100.635 26.2 101.289 26.2ZM113.183 17.68C113.97 17.68 114.656 17.84 115.243 18.16C115.843 18.48 116.303 18.9 116.623 19.42V17.84H120.043V28.98C120.043 30.0067 119.836 30.9333 119.423 31.76C119.023 32.6 118.403 33.2667 117.563 33.76C116.736 34.2533 115.703 34.5 114.463 34.5C112.81 34.5 111.47 34.1067 110.443 33.32C109.416 32.5467 108.83 31.4933 108.683 30.16H112.063C112.17 30.5867 112.423 30.92 112.823 31.16C113.223 31.4133 113.716 31.54 114.303 31.54C115.01 31.54 115.57 31.3333 115.983 30.92C116.41 30.52 116.623 29.8733 116.623 28.98V27.4C116.29 27.92 115.83 28.3467 115.243 28.68C114.656 29 113.97 29.16 113.183 29.16C112.263 29.16 111.43 28.9267 110.683 28.46C109.936 27.98 109.343 27.3067 108.903 26.44C108.476 25.56 108.263 24.5467 108.263 23.4C108.263 22.2533 108.476 21.2467 108.903 20.38C109.343 19.5133 109.936 18.8467 110.683 18.38C111.43 17.9133 112.263 17.68 113.183 17.68ZM116.623 23.42C116.623 22.5667 116.383 21.8933 115.903 21.4C115.436 20.9067 114.863 20.66 114.183 20.66C113.503 20.66 112.923 20.9067 112.443 21.4C111.976 21.88 111.743 22.5467 111.743 23.4C111.743 24.2533 111.976 24.9333 112.443 25.44C112.923 25.9333 113.503 26.18 114.183 26.18C114.863 26.18 115.436 25.9333 115.903 25.44C116.383 24.9467 116.623 24.2733 116.623 23.42ZM125.937 14.2V29H122.517V14.2H125.937ZM138.936 23.24C138.936 23.56 138.916 23.8933 138.876 24.24H131.136C131.189 24.9333 131.409 25.4667 131.796 25.84C132.196 26.2 132.682 26.38 133.256 26.38C134.109 26.38 134.702 26.02 135.036 25.3H138.676C138.489 26.0333 138.149 26.6933 137.656 27.28C137.176 27.8667 136.569 28.3267 135.836 28.66C135.102 28.9933 134.282 29.16 133.376 29.16C132.282 29.16 131.309 28.9267 130.456 28.46C129.602 27.9933 128.936 27.3267 128.456 26.46C127.976 25.5933 127.736 24.58 127.736 23.42C127.736 22.26 127.969 21.2467 128.436 20.38C128.916 19.5133 129.582 18.8467 130.436 18.38C131.289 17.9133 132.269 17.68 133.376 17.68C134.456 17.68 135.416 17.9067 136.256 18.36C137.096 18.8133 137.749 19.46 138.216 20.3C138.696 21.14 138.936 22.12 138.936 23.24ZM135.436 22.34C135.436 21.7533 135.236 21.2867 134.836 20.94C134.436 20.5933 133.936 20.42 133.336 20.42C132.762 20.42 132.276 20.5867 131.876 20.92C131.489 21.2533 131.249 21.7267 131.156 22.34H135.436Z" fill="#535553"/>
<defs>
<clipPath id="clip0_1_42">
<rect width="27" height="28" fill="white" transform="translate(12 8)"/>
</clipPath>
</defs>
</svg>
